<svg width="60" height="60" viewBox="0 0 60 60" fill="none" xmlns="http://www.w3.org/2000/svg">
<path fill-rule="evenodd" clip-rule="evenodd" d="M30 60C46.5685 60 60 46.5685 60 30C60 13.4315 46.5685 0 30 0C13.4315 0 0 13.4315 0 30C0 46.5685 13.4315 60 30 60ZM45.8941 22.1339C47.0726 20.7197 46.8815 18.6178 45.4673 17.4393C44.053 16.2607 41.9511 16.4518 40.7726 17.8661L28.7794 32.2579C27.6237 33.6447 26.974 34.4125 26.4553 34.8844L26.4354 34.9023L26.4141 34.8862C25.8548 34.4633 25.1382 33.7575 23.8617 32.4809L19.0237 27.643C17.7219 26.3412 15.6114 26.3412 14.3096 27.643C13.0079 28.9447 13.0079 31.0553 14.3096 32.357L19.1476 37.195L19.2837 37.3311L19.2837 37.3311C20.372 38.4199 21.419 39.4672 22.3931 40.2038C23.4843 41.0289 24.9134 41.8048 26.7448 41.7218C28.5761 41.6387 29.9291 40.7366 30.9411 39.8161C31.8446 38.9943 32.7924 37.8564 33.7777 36.6737L33.7777 36.6736L33.9009 36.5258L45.8941 22.1339Z" fill="#11C72E"/>
</svg>
