<svg width="60" height="60" viewBox="0 0 60 60" fill="none" xmlns="http://www.w3.org/2000/svg">
<path fill-rule="evenodd" clip-rule="evenodd" d="M60 30C60 46.5685 46.5685 60 30 60C13.4315 60 0 46.5685 0 30C0 13.4315 13.4315 0 30 0C46.5685 0 60 13.4315 60 30ZM14.3096 45.6904C13.0079 44.3886 13.0079 42.2781 14.3096 40.9763L25.286 30L14.3096 19.0237C13.0079 17.7219 13.0079 15.6114 14.3096 14.3096C15.6114 13.0079 17.7219 13.0079 19.0237 14.3096L30 25.286L40.9763 14.3096C42.2781 13.0079 44.3886 13.0079 45.6904 14.3096C46.9921 15.6114 46.9921 17.7219 45.6904 19.0237L34.714 30L45.6904 40.9763C46.9921 42.2781 46.9921 44.3886 45.6904 45.6904C44.3886 46.9921 42.2781 46.9921 40.9763 45.6904L30 34.714L19.0237 45.6904C17.7219 46.9921 15.6114 46.9921 14.3096 45.6904Z" fill="#FF0000"/>
</svg>
